<svg width="325" height="159" viewBox="0 0 325 159" fill="none" xmlns="http://www.w3.org/2000/svg">
<rect x="0.5" y="0.5" width="324" height="158" rx="9.5" fill="white" stroke="#52616B" stroke-dasharray="3 3"/>
<path opacity="0.5" d="M75.764 136.18C74.604 136.18 73.608 135.78 72.776 134.98C71.952 134.18 71.54 133.1 71.54 131.74C71.54 130.828 71.748 130.028 72.164 129.34C72.58 128.652 73.104 128.144 73.736 127.816C74.368 127.48 75.044 127.312 75.764 127.312C76.724 127.312 77.532 127.556 78.188 128.044C78.852 128.524 79.292 129.18 79.508 130.012L78.416 130.396C78.256 129.756 77.948 129.264 77.492 128.92C77.036 128.568 76.46 128.392 75.764 128.392C74.932 128.392 74.22 128.688 73.628 129.28C73.036 129.864 72.74 130.684 72.74 131.74C72.74 132.796 73.036 133.62 73.628 134.212C74.22 134.804 74.932 135.1 75.764 135.1C76.46 135.1 77.04 134.916 77.504 134.548C77.968 134.172 78.292 133.676 78.476 133.06L79.52 133.444C79.288 134.268 78.84 134.932 78.176 135.436C77.52 135.932 76.716 136.18 75.764 136.18ZM81.9708 136H80.8428L80.8428 127.312H81.9708L81.9708 136ZM85.0057 136H83.8897L83.8897 130.228H85.0057L85.0057 136ZM83.8657 128.62C83.7137 128.46 83.6377 128.268 83.6377 128.044C83.6377 127.82 83.7137 127.628 83.8657 127.468C84.0257 127.308 84.2177 127.228 84.4417 127.228C84.6657 127.228 84.8577 127.308 85.0177 127.468C85.1777 127.62 85.2577 127.812 85.2577 128.044C85.2577 128.268 85.1777 128.46 85.0177 128.62C84.8577 128.772 84.6657 128.848 84.4417 128.848C84.2177 128.848 84.0257 128.772 83.8657 128.62ZM89.3488 131.092C88.8608 131.092 88.4448 131.268 88.1008 131.62C87.7648 131.972 87.5968 132.468 87.5968 133.108C87.5968 133.74 87.7648 134.236 88.1008 134.596C88.4448 134.956 88.8648 135.136 89.3608 135.136C89.8408 135.136 90.2048 135.016 90.4528 134.776C90.7088 134.536 90.8808 134.26 90.9688 133.948L91.9648 134.38C91.8048 134.86 91.5008 135.28 91.0528 135.64C90.6128 136 90.0488 136.18 89.3608 136.18C88.5208 136.18 87.8248 135.888 87.2728 135.304C86.7208 134.72 86.4448 133.988 86.4448 133.108C86.4448 132.212 86.7208 131.48 87.2728 130.912C87.8248 130.336 88.5168 130.048 89.3488 130.048C90.0528 130.048 90.6208 130.228 91.0528 130.588C91.4928 130.948 91.7808 131.38 91.9168 131.884L90.8968 132.316C90.8088 131.98 90.6408 131.692 90.3928 131.452C90.1448 131.212 89.7968 131.092 89.3488 131.092ZM98.4601 130.228L96.0001 132.664L98.5081 136H97.0921L95.2081 133.456L94.4041 134.26L94.4041 136H93.2881L93.2881 127.312H94.4041L94.4041 132.784L96.9001 130.228H98.4601ZM103.721 132.604L103.721 136H102.593L102.593 127.312H103.721L103.721 130.9C104.105 130.34 104.689 130.06 105.473 130.06C106.137 130.06 106.645 130.272 106.997 130.696C107.357 131.12 107.537 131.668 107.537 132.34L107.537 136H106.409L106.409 132.532C106.409 131.564 105.961 131.08 105.065 131.08C104.649 131.08 104.325 131.224 104.093 131.512C103.861 131.792 103.737 132.156 103.721 132.604ZM110.063 132.52L113.219 132.52C113.203 132.088 113.059 131.736 112.787 131.464C112.515 131.184 112.131 131.044 111.635 131.044C111.187 131.044 110.819 131.192 110.531 131.488C110.243 131.776 110.087 132.12 110.063 132.52ZM113.387 134.02L114.359 134.356C114.191 134.892 113.879 135.332 113.423 135.676C112.967 136.012 112.415 136.18 111.767 136.18C110.959 136.18 110.271 135.904 109.703 135.352C109.143 134.792 108.863 134.04 108.863 133.096C108.863 132.216 109.135 131.488 109.679 130.912C110.223 130.336 110.871 130.048 111.623 130.048C112.495 130.048 113.175 130.324 113.663 130.876C114.151 131.42 114.395 132.152 114.395 133.072C114.395 133.216 114.387 133.336 114.371 133.432L110.027 133.432C110.035 133.944 110.203 134.364 110.531 134.692C110.867 135.02 111.279 135.184 111.767 135.184C112.591 135.184 113.131 134.796 113.387 134.02ZM119.039 130.168L119.039 131.368C118.871 131.344 118.707 131.332 118.547 131.332C117.491 131.332 116.963 131.924 116.963 133.108L116.963 136H115.835L115.835 130.228H116.939L116.939 131.236C117.291 130.5 117.867 130.132 118.667 130.132C118.795 130.132 118.919 130.144 119.039 130.168ZM120.915 132.52H124.071C124.055 132.088 123.911 131.736 123.639 131.464C123.367 131.184 122.983 131.044 122.487 131.044C122.039 131.044 121.671 131.192 121.383 131.488C121.095 131.776 120.939 132.12 120.915 132.52ZM124.239 134.02L125.211 134.356C125.043 134.892 124.731 135.332 124.275 135.676C123.819 136.012 123.267 136.18 122.619 136.18C121.811 136.18 121.123 135.904 120.555 135.352C119.995 134.792 119.715 134.04 119.715 133.096C119.715 132.216 119.987 131.488 120.531 130.912C121.075 130.336 121.723 130.048 122.475 130.048C123.347 130.048 124.027 130.324 124.515 130.876C125.003 131.42 125.247 132.152 125.247 133.072C125.247 133.216 125.239 133.336 125.223 133.432H120.879C120.887 133.944 121.055 134.364 121.383 134.692C121.719 135.02 122.131 135.184 122.619 135.184C123.443 135.184 123.983 134.796 124.239 134.02ZM132.591 131.248H131.199L131.199 136H130.035L130.035 131.248H128.967L128.967 130.228H130.035L130.035 129.256C130.035 128.64 130.215 128.156 130.575 127.804C130.935 127.452 131.387 127.276 131.931 127.276C132.275 127.276 132.499 127.316 132.603 127.396L132.603 128.404C132.483 128.356 132.319 128.332 132.111 128.332C131.863 128.332 131.647 128.408 131.463 128.56C131.287 128.704 131.199 128.956 131.199 129.316L131.199 130.228H132.591L132.591 131.248ZM134.753 134.632C135.105 134.992 135.533 135.172 136.037 135.172C136.541 135.172 136.965 134.992 137.309 134.632C137.661 134.264 137.837 133.756 137.837 133.108C137.837 132.468 137.661 131.968 137.309 131.608C136.965 131.24 136.541 131.056 136.037 131.056C135.533 131.056 135.105 131.24 134.753 131.608C134.409 131.968 134.237 132.468 134.237 133.108C134.237 133.756 134.409 134.264 134.753 134.632ZM133.913 130.924C134.473 130.34 135.181 130.048 136.037 130.048C136.893 130.048 137.597 130.34 138.149 130.924C138.709 131.5 138.989 132.228 138.989 133.108C138.989 133.996 138.713 134.732 138.161 135.316C137.609 135.892 136.901 136.18 136.037 136.18C135.173 136.18 134.465 135.892 133.913 135.316C133.361 134.732 133.085 133.996 133.085 133.108C133.085 132.228 133.361 131.5 133.913 130.924ZM143.637 130.168L143.637 131.368C143.469 131.344 143.305 131.332 143.145 131.332C142.089 131.332 141.561 131.924 141.561 133.108L141.561 136H140.433L140.433 130.228H141.537L141.537 131.236C141.889 130.5 142.465 130.132 143.265 130.132C143.393 130.132 143.517 130.144 143.637 130.168ZM151.643 135.304C151.491 135.592 151.259 135.812 150.947 135.964C150.635 136.108 150.299 136.18 149.939 136.18C149.283 136.18 148.759 135.964 148.367 135.532C147.975 135.092 147.779 134.536 147.779 133.864L147.779 130.228H148.907L148.907 133.696C148.907 134.128 149.011 134.484 149.219 134.764C149.435 135.044 149.767 135.184 150.215 135.184C150.663 135.184 151.003 135.052 151.235 134.788C151.467 134.516 151.583 134.156 151.583 133.708L151.583 130.228H152.711L152.711 134.932C152.711 135.308 152.731 135.664 152.771 136H151.691C151.659 135.824 151.643 135.592 151.643 135.304ZM155.752 138.28H154.636L154.636 130.228H155.728L155.728 131.128C155.896 130.824 156.148 130.576 156.484 130.384C156.82 130.192 157.212 130.096 157.66 130.096C158.492 130.096 159.14 130.38 159.604 130.948C160.076 131.516 160.312 132.236 160.312 133.108C160.312 133.988 160.068 134.716 159.58 135.292C159.1 135.868 158.448 136.156 157.624 136.156C157.2 136.156 156.824 136.068 156.496 135.892C156.168 135.716 155.92 135.492 155.752 135.22L155.752 138.28ZM159.16 133.108C159.16 132.524 159.004 132.044 158.692 131.668C158.388 131.284 157.976 131.092 157.456 131.092C156.944 131.092 156.528 131.284 156.208 131.668C155.896 132.044 155.74 132.524 155.74 133.108C155.74 133.708 155.896 134.2 156.208 134.584C156.528 134.96 156.944 135.148 157.456 135.148C157.968 135.148 158.38 134.96 158.692 134.584C159.004 134.2 159.16 133.708 159.16 133.108ZM162.877 136H161.749L161.749 127.312H162.877L162.877 136ZM165.984 134.632C166.336 134.992 166.764 135.172 167.268 135.172C167.772 135.172 168.196 134.992 168.54 134.632C168.892 134.264 169.068 133.756 169.068 133.108C169.068 132.468 168.892 131.968 168.54 131.608C168.196 131.24 167.772 131.056 167.268 131.056C166.764 131.056 166.336 131.24 165.984 131.608C165.64 131.968 165.468 132.468 165.468 133.108C165.468 133.756 165.64 134.264 165.984 134.632ZM165.144 130.924C165.704 130.34 166.412 130.048 167.268 130.048C168.124 130.048 168.828 130.34 169.38 130.924C169.94 131.5 170.22 132.228 170.22 133.108C170.22 133.996 169.944 134.732 169.392 135.316C168.84 135.892 168.132 136.18 167.268 136.18C166.404 136.18 165.696 135.892 165.144 135.316C164.592 134.732 164.316 133.996 164.316 133.108C164.316 132.228 164.592 131.5 165.144 130.924ZM171.303 134.452C171.303 133.956 171.463 133.56 171.783 133.264C172.103 132.96 172.527 132.772 173.055 132.7L174.615 132.472C174.911 132.432 175.059 132.288 175.059 132.04C175.059 131.736 174.955 131.488 174.747 131.296C174.539 131.104 174.227 131.008 173.811 131.008C173.427 131.008 173.123 131.116 172.899 131.332C172.675 131.54 172.543 131.82 172.503 132.172L171.423 131.92C171.479 131.368 171.731 130.92 172.179 130.576C172.627 130.224 173.163 130.048 173.787 130.048C174.603 130.048 175.207 130.248 175.599 130.648C175.991 131.04 176.187 131.544 176.187 132.16L176.187 135.052C176.187 135.396 176.211 135.712 176.259 136H175.155C175.115 135.76 175.095 135.5 175.095 135.22C174.935 135.476 174.699 135.7 174.387 135.892C174.083 136.084 173.699 136.18 173.235 136.18C172.667 136.18 172.203 136.012 171.843 135.676C171.483 135.332 171.303 134.924 171.303 134.452ZM173.391 135.232C173.895 135.232 174.299 135.096 174.603 134.824C174.907 134.552 175.059 134.12 175.059 133.528L175.059 133.264L173.295 133.528C173.039 133.568 172.835 133.66 172.683 133.804C172.531 133.948 172.455 134.144 172.455 134.392C172.455 134.616 172.539 134.812 172.707 134.98C172.883 135.148 173.111 135.232 173.391 135.232ZM178.616 133.096C178.616 133.704 178.764 134.2 179.06 134.584C179.364 134.968 179.78 135.16 180.308 135.16C180.812 135.16 181.216 134.964 181.52 134.572C181.824 134.18 181.976 133.68 181.976 133.072C181.976 132.472 181.828 131.988 181.532 131.62C181.236 131.252 180.832 131.068 180.32 131.068C179.808 131.068 179.396 131.256 179.084 131.632C178.772 132.008 178.616 132.496 178.616 133.096ZM181.988 135.22L181.988 135.124C181.836 135.42 181.604 135.668 181.292 135.868C180.988 136.06 180.624 136.156 180.2 136.156C179.376 136.156 178.712 135.868 178.208 135.292C177.712 134.708 177.464 133.976 177.464 133.096C177.464 132.256 177.72 131.544 178.232 130.96C178.744 130.368 179.4 130.072 180.2 130.072C180.672 130.072 181.056 130.168 181.352 130.36C181.648 130.544 181.852 130.772 181.964 131.044L181.964 127.312H183.08L183.08 134.932C183.08 135.324 183.1 135.68 183.14 136H182.048C182.008 135.776 181.988 135.516 181.988 135.22ZM190.423 131.092C189.935 131.092 189.519 131.268 189.175 131.62C188.839 131.972 188.671 132.468 188.671 133.108C188.671 133.74 188.839 134.236 189.175 134.596C189.519 134.956 189.939 135.136 190.435 135.136C190.915 135.136 191.279 135.016 191.527 134.776C191.783 134.536 191.955 134.26 192.043 133.948L193.039 134.38C192.879 134.86 192.575 135.28 192.127 135.64C191.687 136 191.123 136.18 190.435 136.18C189.595 136.18 188.899 135.888 188.347 135.304C187.795 134.72 187.519 133.988 187.519 133.108C187.519 132.212 187.795 131.48 188.347 130.912C188.899 130.336 189.591 130.048 190.423 130.048C191.127 130.048 191.695 130.228 192.127 130.588C192.567 130.948 192.855 131.38 192.991 131.884L191.971 132.316C191.883 131.98 191.715 131.692 191.467 131.452C191.219 131.212 190.871 131.092 190.423 131.092ZM195.492 134.632C195.844 134.992 196.272 135.172 196.776 135.172C197.28 135.172 197.704 134.992 198.048 134.632C198.4 134.264 198.576 133.756 198.576 133.108C198.576 132.468 198.4 131.968 198.048 131.608C197.704 131.24 197.28 131.056 196.776 131.056C196.272 131.056 195.844 131.24 195.492 131.608C195.148 131.968 194.976 132.468 194.976 133.108C194.976 133.756 195.148 134.264 195.492 134.632ZM194.652 130.924C195.212 130.34 195.92 130.048 196.776 130.048C197.632 130.048 198.336 130.34 198.888 130.924C199.448 131.5 199.728 132.228 199.728 133.108C199.728 133.996 199.452 134.732 198.9 135.316C198.348 135.892 197.64 136.18 196.776 136.18C195.912 136.18 195.204 135.892 194.652 135.316C194.1 134.732 193.824 133.996 193.824 133.108C193.824 132.228 194.1 131.5 194.652 130.924ZM205.939 130.228L203.635 136H202.495L200.155 130.228H201.427L203.071 134.68L204.727 130.228H205.939ZM207.575 132.52H210.731C210.715 132.088 210.571 131.736 210.299 131.464C210.027 131.184 209.643 131.044 209.147 131.044C208.699 131.044 208.331 131.192 208.043 131.488C207.755 131.776 207.599 132.12 207.575 132.52ZM210.899 134.02L211.871 134.356C211.703 134.892 211.391 135.332 210.935 135.676C210.479 136.012 209.927 136.18 209.279 136.18C208.471 136.18 207.783 135.904 207.215 135.352C206.655 134.792 206.375 134.04 206.375 133.096C206.375 132.216 206.647 131.488 207.191 130.912C207.735 130.336 208.383 130.048 209.135 130.048C210.007 130.048 210.687 130.324 211.175 130.876C211.663 131.42 211.907 132.152 211.907 133.072C211.907 133.216 211.899 133.336 211.883 133.432H207.539C207.547 133.944 207.715 134.364 208.043 134.692C208.379 135.02 208.791 135.184 209.279 135.184C210.103 135.184 210.643 134.796 210.899 134.02ZM216.551 130.168L216.551 131.368C216.383 131.344 216.219 131.332 216.059 131.332C215.003 131.332 214.475 131.924 214.475 133.108L214.475 136H213.347L213.347 130.228H214.451L214.451 131.236C214.803 130.5 215.379 130.132 216.179 130.132C216.307 130.132 216.431 130.144 216.551 130.168ZM221.869 138.28H220.753L220.753 130.228H221.845L221.845 131.128C222.013 130.824 222.265 130.576 222.601 130.384C222.937 130.192 223.329 130.096 223.777 130.096C224.609 130.096 225.257 130.38 225.721 130.948C226.193 131.516 226.429 132.236 226.429 133.108C226.429 133.988 226.185 134.716 225.697 135.292C225.217 135.868 224.565 136.156 223.741 136.156C223.317 136.156 222.941 136.068 222.613 135.892C222.285 135.716 222.037 135.492 221.869 135.22L221.869 138.28ZM225.277 133.108C225.277 132.524 225.121 132.044 224.809 131.668C224.505 131.284 224.093 131.092 223.573 131.092C223.061 131.092 222.645 131.284 222.325 131.668C222.013 132.044 221.857 132.524 221.857 133.108C221.857 133.708 222.013 134.2 222.325 134.584C222.645 134.96 223.061 135.148 223.573 135.148C224.085 135.148 224.497 134.96 224.809 134.584C225.121 134.2 225.277 133.708 225.277 133.108ZM228.994 132.604L228.994 136H227.866L227.866 127.312H228.994L228.994 130.9C229.378 130.34 229.962 130.06 230.746 130.06C231.41 130.06 231.918 130.272 232.27 130.696C232.63 131.12 232.81 131.668 232.81 132.34L232.81 136H231.682L231.682 132.532C231.682 131.564 231.234 131.08 230.338 131.08C229.922 131.08 229.598 131.224 229.366 131.512C229.134 131.792 229.01 132.156 228.994 132.604ZM235.793 134.632C236.145 134.992 236.573 135.172 237.077 135.172C237.581 135.172 238.005 134.992 238.349 134.632C238.701 134.264 238.877 133.756 238.877 133.108C238.877 132.468 238.701 131.968 238.349 131.608C238.005 131.24 237.581 131.056 237.077 131.056C236.573 131.056 236.145 131.24 235.793 131.608C235.449 131.968 235.277 132.468 235.277 133.108C235.277 133.756 235.449 134.264 235.793 134.632ZM234.953 130.924C235.513 130.34 236.221 130.048 237.077 130.048C237.933 130.048 238.637 130.34 239.189 130.924C239.749 131.5 240.029 132.228 240.029 133.108C240.029 133.996 239.753 134.732 239.201 135.316C238.649 135.892 237.941 136.18 237.077 136.18C236.213 136.18 235.505 135.892 234.953 135.316C234.401 134.732 234.125 133.996 234.125 133.108C234.125 132.228 234.401 131.5 234.953 130.924ZM242.925 128.404L242.925 130.228H244.173L244.173 131.248H242.925L242.925 134.248C242.925 134.52 242.985 134.72 243.105 134.848C243.233 134.976 243.441 135.04 243.729 135.04C243.897 135.04 244.045 135.024 244.173 134.992L244.173 135.952C243.981 136.024 243.725 136.06 243.405 136.06C242.909 136.06 242.517 135.916 242.229 135.628C241.941 135.34 241.797 134.936 241.797 134.416L241.797 131.248H240.693L240.693 130.228H241.005C241.301 130.228 241.521 130.148 241.665 129.988C241.817 129.82 241.893 129.604 241.893 129.34L241.893 128.404H242.925ZM246.808 134.632C247.16 134.992 247.588 135.172 248.092 135.172C248.596 135.172 249.02 134.992 249.364 134.632C249.716 134.264 249.892 133.756 249.892 133.108C249.892 132.468 249.716 131.968 249.364 131.608C249.02 131.24 248.596 131.056 248.092 131.056C247.588 131.056 247.16 131.24 246.808 131.608C246.464 131.968 246.292 132.468 246.292 133.108C246.292 133.756 246.464 134.264 246.808 134.632ZM245.968 130.924C246.528 130.34 247.236 130.048 248.092 130.048C248.948 130.048 249.652 130.34 250.204 130.924C250.764 131.5 251.044 132.228 251.044 133.108C251.044 133.996 250.768 134.732 250.216 135.316C249.664 135.892 248.956 136.18 248.092 136.18C247.228 136.18 246.52 135.892 245.968 135.316C245.416 134.732 245.14 133.996 245.14 133.108C245.14 132.228 245.416 131.5 245.968 130.924ZM252.432 135.82C252.272 135.66 252.192 135.464 252.192 135.232C252.192 135 252.272 134.804 252.432 134.644C252.592 134.476 252.788 134.392 253.02 134.392C253.252 134.392 253.448 134.476 253.608 134.644C253.776 134.804 253.86 135 253.86 135.232C253.86 135.464 253.776 135.66 253.608 135.82C253.448 135.98 253.252 136.06 253.02 136.06C252.788 136.06 252.592 135.98 252.432 135.82Z" fill="#1E2022"/>
<g clip-path="url(#clip0_5_54)">
<path d="M182.686 39.1132C180.524 28.2675 169.98 21.228 159.134 23.3896C151.201 24.9707 144.999 31.1694 143.413 39.101C135.723 39.9873 130.207 46.9394 131.093 54.6298C131.908 61.7075 137.903 67.0473 145.027 67.0424H155.039C156.145 67.0424 157.041 66.146 157.041 65.04C157.041 63.934 156.145 63.0376 155.039 63.0376H145.027C139.497 63.0048 135.042 58.4961 135.074 52.9668C135.107 47.4375 139.615 42.9814 145.145 43.0136C146.166 43.0141 147.023 42.2461 147.135 41.2319C148.152 32.4433 156.101 26.143 164.889 27.1596C172.278 28.0146 178.107 33.8427 178.961 41.2319C179.129 42.2641 180.024 43.0205 181.07 43.0136C186.599 43.0136 191.082 47.4961 191.082 53.0258C191.082 58.5551 186.599 63.0376 181.07 63.0376H171.058C169.952 63.0376 169.055 63.934 169.055 65.04C169.055 66.146 169.952 67.0424 171.058 67.0424H181.07C188.811 66.9941 195.047 60.6801 194.999 52.9389C194.955 45.8896 189.683 39.9697 182.686 39.1132Z" fill="#FC6011"/>
<path d="M170.13 58.9319C170.898 59.7278 172.166 59.7498 172.961 58.9813C173.757 58.2132 173.779 56.9456 173.011 56.1502C172.995 56.1331 172.978 56.117 172.961 56.1009L164.469 47.6068C163.688 46.8235 162.42 46.8221 161.637 47.6028C161.636 47.6043 161.635 47.6053 161.634 47.6068L153.142 56.1009C152.346 56.869 152.324 58.1365 153.092 58.9319C153.861 59.7274 155.128 59.7493 155.924 58.9813C155.94 58.9652 155.957 58.9485 155.973 58.9319L161.049 53.8538V79.056C161.049 80.1619 161.946 81.0584 163.052 81.0584C164.157 81.0584 165.054 80.1619 165.054 79.056V53.8538L170.13 58.9319Z" fill="#FC6011"/>
</g>
<path d="M121.496 116.136C120.707 116.872 119.693 117.24 118.456 117.24C117.219 117.24 116.205 116.872 115.416 116.136C114.627 115.4 114.232 114.371 114.232 113.048L114.232 105.656H116.136L116.136 112.936C116.136 113.725 116.339 114.339 116.744 114.776C117.16 115.203 117.731 115.416 118.456 115.416C119.192 115.416 119.763 115.203 120.168 114.776C120.573 114.349 120.776 113.736 120.776 112.936L120.776 105.656H122.696L122.696 113.048C122.696 114.371 122.296 115.4 121.496 116.136ZM126.884 120.04H125.044L125.044 109.208H126.836L126.836 110.264C127.038 109.912 127.358 109.619 127.796 109.384C128.233 109.149 128.74 109.032 129.316 109.032C130.436 109.032 131.316 109.416 131.956 110.184C132.596 110.941 132.916 111.912 132.916 113.096C132.916 114.28 132.58 115.261 131.908 116.04C131.236 116.808 130.35 117.192 129.252 117.192C128.718 117.192 128.244 117.091 127.828 116.888C127.412 116.685 127.097 116.429 126.884 116.12L126.884 120.04ZM131.06 113.096C131.06 112.371 130.868 111.789 130.484 111.352C130.1 110.904 129.593 110.68 128.964 110.68C128.345 110.68 127.838 110.904 127.444 111.352C127.06 111.789 126.868 112.371 126.868 113.096C126.868 113.832 127.06 114.424 127.444 114.872C127.838 115.32 128.345 115.544 128.964 115.544C129.582 115.544 130.084 115.32 130.468 114.872C130.862 114.424 131.06 113.832 131.06 113.096ZM136.556 117L134.7 117L134.7 105.416H136.556L136.556 117ZM140.822 114.92C141.249 115.357 141.766 115.576 142.374 115.576C142.982 115.576 143.494 115.357 143.91 114.92C144.337 114.483 144.55 113.875 144.55 113.096C144.55 112.328 144.337 111.731 143.91 111.304C143.494 110.867 142.982 110.648 142.374 110.648C141.766 110.648 141.249 110.867 140.822 111.304C140.406 111.731 140.198 112.328 140.198 113.096C140.198 113.864 140.406 114.472 140.822 114.92ZM142.374 108.968C143.547 108.968 144.513 109.357 145.27 110.136C146.038 110.915 146.422 111.901 146.422 113.096C146.422 114.291 146.038 115.283 145.27 116.072C144.513 116.851 143.547 117.24 142.374 117.24C141.211 117.24 140.246 116.851 139.478 116.072C138.721 115.283 138.342 114.291 138.342 113.096C138.342 111.901 138.721 110.915 139.478 110.136C140.246 109.357 141.211 108.968 142.374 108.968ZM147.736 114.888C147.736 114.227 147.949 113.699 148.376 113.304C148.813 112.899 149.384 112.643 150.088 112.536L152.088 112.232C152.472 112.179 152.664 111.992 152.664 111.672C152.664 111.32 152.541 111.037 152.296 110.824C152.05 110.6 151.682 110.488 151.192 110.488C150.722 110.488 150.349 110.621 150.072 110.888C149.794 111.144 149.634 111.48 149.592 111.896L147.896 111.512C147.97 110.808 148.306 110.211 148.904 109.72C149.501 109.219 150.258 108.968 151.176 108.968C152.306 108.968 153.138 109.24 153.672 109.784C154.216 110.328 154.488 111.027 154.488 111.88L154.488 115.752C154.488 116.264 154.52 116.68 154.584 117H152.856C152.802 116.84 152.776 116.509 152.776 116.008C152.264 116.829 151.464 117.24 150.376 117.24C149.586 117.24 148.946 117.011 148.456 116.552C147.976 116.083 147.736 115.528 147.736 114.888ZM150.728 115.784C151.304 115.784 151.768 115.629 152.12 115.32C152.482 115 152.664 114.483 152.664 113.768L152.664 113.416L150.632 113.72C149.938 113.837 149.592 114.189 149.592 114.776C149.592 115.053 149.693 115.293 149.896 115.496C150.098 115.688 150.376 115.784 150.728 115.784ZM157.964 113.08C157.964 113.827 158.156 114.429 158.54 114.888C158.924 115.336 159.43 115.56 160.06 115.56C160.668 115.56 161.164 115.331 161.548 114.872C161.932 114.413 162.124 113.811 162.124 113.064C162.124 112.328 161.937 111.741 161.564 111.304C161.19 110.867 160.694 110.648 160.076 110.648C159.457 110.648 158.95 110.872 158.556 111.32C158.161 111.757 157.964 112.344 157.964 113.08ZM163.916 105.416L163.916 115.576C163.916 116.099 163.942 116.573 163.996 117H162.22C162.166 116.701 162.14 116.365 162.14 115.992C161.948 116.344 161.649 116.632 161.244 116.856C160.838 117.08 160.374 117.192 159.852 117.192C158.742 117.192 157.841 116.803 157.148 116.024C156.454 115.245 156.108 114.264 156.108 113.08C156.108 111.939 156.454 110.973 157.148 110.184C157.852 109.395 158.742 109 159.82 109C160.438 109 160.934 109.112 161.308 109.336C161.692 109.56 161.958 109.821 162.108 110.12L162.108 105.416H163.916ZM175.509 117.24C173.92 117.24 172.565 116.701 171.445 115.624C170.336 114.547 169.781 113.117 169.781 111.336C169.781 109.565 170.347 108.136 171.477 107.048C172.608 105.96 173.947 105.416 175.493 105.416C176.859 105.416 177.979 105.763 178.853 106.456C179.739 107.149 180.32 108.029 180.597 109.096L178.789 109.704C178.608 108.968 178.24 108.371 177.685 107.912C177.131 107.453 176.4 107.224 175.493 107.224C174.48 107.224 173.6 107.587 172.853 108.312C172.117 109.027 171.749 110.035 171.749 111.336C171.749 112.605 172.117 113.603 172.853 114.328C173.589 115.043 174.475 115.4 175.509 115.4C176.395 115.4 177.125 115.16 177.701 114.68C178.277 114.2 178.672 113.608 178.885 112.904L180.645 113.48C180.368 114.536 179.781 115.427 178.885 116.152C178 116.877 176.875 117.24 175.509 117.24ZM184.025 114.92C184.452 115.357 184.969 115.576 185.577 115.576C186.185 115.576 186.697 115.357 187.113 114.92C187.54 114.483 187.753 113.875 187.753 113.096C187.753 112.328 187.54 111.731 187.113 111.304C186.697 110.867 186.185 110.648 185.577 110.648C184.969 110.648 184.452 110.867 184.025 111.304C183.609 111.731 183.401 112.328 183.401 113.096C183.401 113.864 183.609 114.472 184.025 114.92ZM185.577 108.968C186.75 108.968 187.716 109.357 188.473 110.136C189.241 110.915 189.625 111.901 189.625 113.096C189.625 114.291 189.241 115.283 188.473 116.072C187.716 116.851 186.75 117.24 185.577 117.24C184.414 117.24 183.449 116.851 182.681 116.072C181.924 115.283 181.545 114.291 181.545 113.096C181.545 111.901 181.924 110.915 182.681 110.136C183.449 109.357 184.414 108.968 185.577 108.968ZM198.224 109.208L195.168 117H193.312L190.144 109.208H192.192L194.256 114.776L196.272 109.208H198.224ZM200.652 112.248H204.476C204.455 111.757 204.279 111.347 203.948 111.016C203.628 110.685 203.164 110.52 202.556 110.52C202.002 110.52 201.554 110.696 201.212 111.048C200.871 111.389 200.684 111.789 200.652 112.248ZM204.684 114.28L206.252 114.776C206.028 115.491 205.607 116.083 204.988 116.552C204.38 117.011 203.628 117.24 202.732 117.24C201.623 117.24 200.679 116.861 199.9 116.104C199.132 115.347 198.748 114.333 198.748 113.064C198.748 111.869 199.122 110.888 199.868 110.12C200.626 109.352 201.516 108.968 202.54 108.968C203.735 108.968 204.668 109.336 205.34 110.072C206.012 110.797 206.348 111.779 206.348 113.016C206.348 113.347 206.332 113.544 206.3 113.608H200.604C200.626 114.195 200.839 114.68 201.244 115.064C201.66 115.448 202.156 115.64 202.732 115.64C203.735 115.64 204.386 115.187 204.684 114.28ZM212.682 109.16L212.682 111.048C212.469 111.016 212.266 111 212.074 111C210.677 111 209.978 111.763 209.978 113.288L209.978 117H208.122L208.122 109.208H209.93L209.93 110.456C210.111 110.04 210.405 109.715 210.81 109.48C211.215 109.235 211.674 109.112 212.186 109.112C212.357 109.112 212.522 109.128 212.682 109.16Z" fill="#1E2022"/>
<defs>
<clipPath id="clip0_5_54">
<rect width="64" height="64" fill="white" transform="translate(131 20)"/>
</clipPath>
</defs>
</svg>
