<svg width="16" height="16" viewBox="0 0 16 16" fill="none" xmlns="http://www.w3.org/2000/svg">
<g clip-path="url(#clip0_18_2468)">
<path d="M12.2658 1.40033L7.86607 5.80008L3.46633 1.40034C2.85916 0.793165 1.87469 0.792056 1.26641 1.40034C0.658131 2.00862 0.65924 2.99309 1.26641 3.60026L5.66615 8L1.26641 12.3997C0.658131 13.008 0.65924 13.9925 1.26641 14.5997C1.87358 15.2068 2.85805 15.2079 3.46633 14.5997L7.86607 10.1999L12.2658 14.5997C12.873 15.2068 13.8575 15.2079 14.4657 14.5997C15.074 13.9914 15.0729 13.0069 14.4657 12.3997L10.066 8L14.4657 3.60026C15.074 2.99198 15.0729 2.00751 14.4657 1.40034C13.8586 0.793166 12.8741 0.792055 12.2658 1.40033Z" fill="#EB5757"/>
</g>
<defs>
<clipPath id="clip0_18_2468">
<rect width="16" height="16" fill="white"/>
</clipPath>
</defs>
</svg>
