<svg width="16" height="16" viewBox="0 0 16 16" fill="none" xmlns="http://www.w3.org/2000/svg">
<g clip-path="url(#clip0_1_2672)">
<path d="M15.6797 11.5352H12.1847C12.3274 11.3178 12.4108 11.0582 12.4108 10.7793C12.4108 10.336 12.2006 9.94119 11.875 9.68834V8.66438L12.0315 8.82094C12.0926 8.88194 12.1725 8.91247 12.2525 8.91247C12.3325 8.91247 12.4124 8.88194 12.4735 8.82094L13.7018 7.59259C13.7604 7.53397 13.7934 7.4545 13.7934 7.37162C13.7934 7.28875 13.7604 7.20928 13.7018 7.15066L12.4735 5.92228C12.4148 5.86369 12.3354 5.83075 12.2525 5.83075C12.1696 5.83075 12.0901 5.86369 12.0315 5.92228L11.875 6.07884V1.6875C11.875 1.51494 11.735 1.375 11.5625 1.375H10.5648V1.12731C10.5648 0.505719 10.0591 0 9.4375 0C8.81587 0 8.31019 0.505719 8.31019 1.12731V1.375H7.06481V1.12731C7.06481 0.505719 6.55913 0 5.9375 0C5.31587 0 4.81019 0.505719 4.81019 1.12731V1.375H3.56481V1.12731C3.56481 0.505719 3.05913 0 2.4375 0C1.81587 0 1.31019 0.505719 1.31019 1.12731V1.375H0.3125C0.139938 1.375 0 1.51494 0 1.6875V15.6875C0 15.8601 0.139938 16 0.3125 16H4.53134C4.70391 16 4.84384 15.8601 4.84384 15.6875C4.84384 15.5149 4.70391 15.375 4.53134 15.375H0.625V2H2.93981V2.24769C2.93981 2.52466 2.71447 2.75 2.4375 2.75C2.26494 2.75 2.125 2.88994 2.125 3.0625C2.125 3.23506 2.26494 3.375 2.4375 3.375C3.05913 3.375 3.56481 2.86928 3.56481 2.24769V2H6.43981V2.24769C6.43981 2.52466 6.21447 2.75 5.9375 2.75C5.76494 2.75 5.625 2.88994 5.625 3.0625C5.625 3.23506 5.76494 3.375 5.9375 3.375C6.55913 3.375 7.06481 2.86928 7.06481 2.24769V2H9.93981V2.24769C9.93981 2.52466 9.71447 2.75 9.4375 2.75C9.26494 2.75 9.125 2.88994 9.125 3.0625C9.125 3.23506 9.26494 3.375 9.4375 3.375C10.0591 3.375 10.5648 2.86928 10.5648 2.24769V2H11.25V6.70388L10.8032 7.15066C10.6812 7.27269 10.6812 7.47056 10.8032 7.59263L11.25 8.03941V9.41619C11.1783 9.40466 11.1048 9.39844 11.0299 9.39844C10.2685 9.39844 9.64906 10.0179 9.64906 10.7793C9.64906 11.0582 9.73241 11.3178 9.87516 11.5352H8C7.82744 11.5352 7.6875 11.6751 7.6875 11.8477C7.6875 13.3348 8.47341 14.6415 9.65153 15.375H7.34375C7.17119 15.375 7.03125 15.515 7.03125 15.6875C7.03125 15.8601 7.17119 16 7.34375 16H11.8398C14.1295 16 15.9922 14.1373 15.9922 11.8477C15.9922 11.6751 15.8522 11.5352 15.6797 11.5352ZM1.93519 1.375V1.12731C1.93519 0.850344 2.16053 0.625 2.4375 0.625C2.71447 0.625 2.93981 0.850344 2.93981 1.12731V1.375H1.93519ZM5.43519 1.375V1.12731C5.43519 0.850344 5.66053 0.625 5.9375 0.625C6.21447 0.625 6.43981 0.850344 6.43981 1.12731V1.375H5.43519ZM8.93519 1.375V1.12731C8.93519 0.850344 9.16053 0.625 9.4375 0.625C9.71447 0.625 9.93981 0.850344 9.93981 1.12731V1.375H8.93519ZM12.2525 6.58525L13.0389 7.37166L12.2525 8.15806L11.4661 7.37166L12.2525 6.58525ZM10.2741 10.7793C10.2741 10.3625 10.6132 10.0234 11.03 10.0234C11.4468 10.0234 11.7858 10.3625 11.7858 10.7793C11.7858 11.1961 11.4468 11.5352 11.03 11.5352C10.6132 11.5352 10.2741 11.1961 10.2741 10.7793ZM11.8398 15.375C10.0002 15.375 8.48491 13.9593 8.32622 12.1602H15.3534C15.1948 13.9593 13.6795 15.375 11.8398 15.375V15.375Z" fill="black"/>
<path d="M13.0935 10.4116C13.415 10.7331 13.8425 10.9101 14.2972 10.9101C14.7519 10.9101 15.1793 10.7331 15.5009 10.4116C15.8224 10.0901 15.9994 9.66259 15.9994 9.2079C15.9994 8.75322 15.8223 8.32575 15.5008 8.00422C15.3788 7.88222 15.181 7.88222 15.0589 8.00422L13.0935 9.96962C12.9714 10.0917 12.9714 10.2896 13.0935 10.4116V10.4116ZM15.2472 8.69984C15.4649 9.10737 15.4021 9.62643 15.0589 9.96965C14.7157 10.3129 14.1966 10.3757 13.7891 10.1579L15.2472 8.69984Z" fill="black"/>
<path d="M8.61956 6.00403C8.447 6.00403 8.30706 6.14397 8.30706 6.31653V6.4399C8.0999 6.501 7.91337 6.62215 7.77184 6.79253C7.56184 7.0454 7.47599 7.37574 7.53634 7.69887L7.84693 9.36227C7.91637 9.73411 8.24128 10.004 8.61956 10.004C8.99784 10.004 9.32275 9.73411 9.39219 9.3623L9.70278 7.69887C9.76312 7.37574 9.67728 7.0454 9.46728 6.79253C9.32575 6.62212 9.13922 6.50096 8.93206 6.4399V6.31653C8.93206 6.14393 8.79215 6.00403 8.61956 6.00403V6.00403ZM8.98647 7.19187C9.07734 7.3013 9.11453 7.4443 9.0884 7.58415L8.77781 9.24761C8.76359 9.32377 8.69703 9.37902 8.61959 9.37902C8.54215 9.37902 8.47559 9.32373 8.46137 9.24758L8.15078 7.58415C8.12465 7.44427 8.16184 7.3013 8.25271 7.19187C8.34362 7.08243 8.47734 7.01965 8.61962 7.01965C8.7619 7.01965 8.89556 7.08243 8.98647 7.19187V7.19187Z" fill="black"/>
<path d="M2.53341 5.08131C2.47531 5.02287 2.39469 4.98975 2.3125 4.98975C2.23031 4.98975 2.14969 5.02287 2.09156 5.08131C2.03344 5.13943 2 5.22006 2 5.30225C2 5.38443 2.03341 5.46475 2.09156 5.52318C2.14969 5.58128 2.23031 5.61475 2.3125 5.61475C2.39469 5.61475 2.47531 5.58131 2.53341 5.52318C2.59153 5.46475 2.625 5.38443 2.625 5.30225C2.625 5.22006 2.59156 5.13943 2.53341 5.08131Z" fill="black"/>
<path d="M6.62636 4.98962H3.86365C3.69108 4.98962 3.55115 5.12956 3.55115 5.30212C3.55115 5.47469 3.69108 5.61462 3.86365 5.61462H6.62636C6.79892 5.61462 6.93886 5.47469 6.93886 5.30212C6.93886 5.12956 6.79895 4.98962 6.62636 4.98962Z" fill="black"/>
<path d="M2.53341 7.3134C2.47531 7.25527 2.39469 7.2218 2.3125 7.2218C2.23031 7.2218 2.14969 7.25524 2.09156 7.3134C2.03344 7.37149 2 7.45211 2 7.5343C2 7.61652 2.03341 7.69711 2.09156 7.75524C2.14972 7.81336 2.23031 7.8468 2.3125 7.8468C2.39469 7.8468 2.47531 7.8134 2.53341 7.75524C2.59153 7.69711 2.625 7.61652 2.625 7.5343C2.625 7.45211 2.59156 7.37149 2.53341 7.3134Z" fill="black"/>
<path d="M6.62636 7.22192H3.86365C3.69108 7.22192 3.55115 7.36186 3.55115 7.53442C3.55115 7.70699 3.69108 7.84692 3.86365 7.84692H6.62636C6.79892 7.84692 6.93886 7.70699 6.93886 7.53442C6.93886 7.36186 6.79895 7.22192 6.62636 7.22192Z" fill="black"/>
<path d="M2.53341 9.54657C2.47531 9.48848 2.39469 9.45532 2.3125 9.45532C2.23031 9.45532 2.14969 9.48848 2.09156 9.54657C2.03344 9.60501 2 9.68563 2 9.76782C2 9.85001 2.03341 9.93032 2.09156 9.98848C2.14969 10.0469 2.23031 10.0803 2.3125 10.0803C2.39469 10.0803 2.47531 10.0469 2.53341 9.98848C2.59153 9.93035 2.625 9.85001 2.625 9.76782C2.625 9.68563 2.59156 9.60504 2.53341 9.54657Z" fill="black"/>
<path d="M6.62636 9.4552H3.86365C3.69108 9.4552 3.55115 9.59514 3.55115 9.7677C3.55115 9.94026 3.69108 10.0802 3.86365 10.0802H6.62636C6.79892 10.0802 6.93886 9.94026 6.93886 9.7677C6.93886 9.59514 6.79895 9.4552 6.62636 9.4552Z" fill="black"/>
<path d="M2.3125 11.6875C2.23031 11.6875 2.14969 11.7209 2.09156 11.7791C2.03344 11.8372 2 11.9178 2 12C2 12.0822 2.03341 12.1628 2.09156 12.2209C2.14969 12.2791 2.23031 12.3125 2.3125 12.3125C2.39469 12.3125 2.47531 12.2791 2.53341 12.2209C2.59156 12.1628 2.625 12.0822 2.625 12C2.625 11.9178 2.59156 11.8372 2.53341 11.7791C2.47531 11.7209 2.39469 11.6875 2.3125 11.6875Z" fill="black"/>
<path d="M6.62636 11.6875H3.86365C3.69108 11.6875 3.55115 11.8274 3.55115 12C3.55115 12.1726 3.69108 12.3125 3.86365 12.3125H6.62636C6.79892 12.3125 6.93886 12.1726 6.93886 12C6.93886 11.8274 6.79895 11.6875 6.62636 11.6875Z" fill="black"/>
<path d="M5.9375 15.375C5.85531 15.375 5.77469 15.4084 5.71656 15.4666C5.65844 15.5247 5.625 15.6053 5.625 15.6875C5.625 15.7697 5.65841 15.8503 5.71656 15.9084C5.77469 15.9665 5.85531 16 5.9375 16C6.01969 16 6.10031 15.9666 6.15841 15.9084C6.21656 15.8503 6.25 15.7697 6.25 15.6875C6.25 15.6053 6.21656 15.5247 6.15841 15.4666C6.10031 15.4084 6.01969 15.375 5.9375 15.375Z" fill="black"/>
</g>
<defs>
<clipPath id="clip0_1_2672">
<rect width="16" height="16" fill="white"/>
</clipPath>
</defs>
</svg>
