<svg width="16" height="16" viewBox="0 0 16 16" fill="none" xmlns="http://www.w3.org/2000/svg">
<g clip-path="url(#clip0_1_2670)">
<path d="M11.6417 4.55547L11.6417 4.55546C11.3999 4.31358 11.0082 4.31346 10.7662 4.5555L10.7662 4.5555C10.3767 4.94515 10.6551 5.61227 11.204 5.61227C11.752 5.61227 12.0317 4.94558 11.6417 4.55547ZM12.585 3.61212L12.5143 3.68283L12.585 3.61212C11.8234 2.85054 10.5845 2.85054 9.82287 3.61212L9.89358 3.68283L9.82287 3.61212C9.67968 3.75531 9.67968 3.98746 9.82287 4.13064L9.82288 4.13066C9.9661 4.27383 10.1982 4.27383 10.3414 4.13066L10.3414 4.13064C10.8169 3.6551 11.5909 3.6551 12.0665 4.13064L12.0665 4.13066C12.2097 4.27382 12.4418 4.27387 12.585 4.13066L12.585 4.13064C12.7282 3.98746 12.7282 3.75531 12.585 3.61212ZM13.1373 3.05988L13.208 2.98917L13.1373 3.05988C13.2088 3.13145 13.3028 3.16727 13.3965 3.16727C13.7198 3.16727 13.8883 2.77375 13.6559 2.54136C12.3006 1.1861 10.1072 1.18621 8.75207 2.54136C8.60888 2.68454 8.60888 2.91669 8.75207 3.05988L8.75208 3.05989C8.8953 3.20306 9.1274 3.20306 9.27061 3.05989L9.27063 3.05988C10.3393 1.9912 12.0687 1.99129 13.1373 3.05988ZM11.1288 0.298278L11.1288 0.298257C10.8608 0.0415189 10.5085 -0.1 10.1373 -0.1H3.67061C2.88019 -0.1 2.23728 0.542905 2.23728 1.33333V14.6667C2.23728 15.4571 2.88019 16.1 3.67061 16.1H10.1373C10.9277 16.1 11.5706 15.4571 11.5706 14.6667V6.66667C11.5706 6.46416 11.4064 6.3 11.2039 6.3H4.43725C4.23475 6.3 4.07058 6.46417 4.07058 6.66667C4.07058 6.86916 4.23475 7.03333 4.43725 7.03333H10.8372V14.6667C10.8372 15.0525 10.5231 15.3667 10.1372 15.3667H3.67058C3.28471 15.3667 2.97058 15.0525 2.97058 14.6667V1.33333C2.97058 0.947462 3.28471 0.633333 3.67058 0.633333H10.1372C10.3188 0.633333 10.4905 0.702322 10.6214 0.827766L10.6214 0.8278C10.7676 0.967785 10.9997 0.962914 11.1398 0.81669C11.28 0.670463 11.275 0.43837 11.1288 0.298278ZM4.80395 3.1C4.80395 2.89751 4.63978 2.73333 4.43728 2.73333C4.23479 2.73333 4.07061 2.89751 4.07061 3.1V4.36667C4.07061 4.56916 4.23479 4.73333 4.43728 4.73333C4.63978 4.73333 4.80395 4.56916 4.80395 4.36667V3.1ZM4.07061 8.9V12.3667C4.07061 12.5692 4.23479 12.7333 4.43728 12.7333C4.63978 12.7333 4.80395 12.5692 4.80395 12.3667V8.9C4.80395 8.69751 4.63978 8.53333 4.43728 8.53333C4.23479 8.53333 4.07061 8.69751 4.07061 8.9Z" fill="#1E2022" stroke="#1E2022" stroke-width="0.2"/>
</g>
<defs>
<clipPath id="clip0_1_2670">
<rect width="16" height="16" fill="white"/>
</clipPath>
</defs>
</svg>
