<?xml version="1.0" encoding="iso-8859-1"?>
<!-- Generator: Adobe Illustrator 19.0.0, SVG Export Plug-In . SVG Version: 6.00 Build 0)  -->
<svg version="1.1" id="Layer_1" xmlns="http://www.w3.org/2000/svg" xmlns:xlink="http://www.w3.org/1999/xlink" x="0px" y="0px"
	 viewBox="0 0 512 512" style="enable-background:new 0 0 512 512;" xml:space="preserve">
<g transform="translate(-1)">
	<path style="fill:#EF771D;" d="M59.488,416.717c-35.037,26.474-26.474,29.352,0,64.388
		C91.382,455.921,83.199,452.884,59.488,416.717"/>
	<path style="fill:#F9DA49;" d="M165.418,416.717c-35.037,26.474-26.474,29.352,0,64.388
		C197.233,454.367,189.297,451.542,165.418,416.717"/>
	<path style="fill:#EF771D;" d="M269.134,416.717c-31.815,30.543-23.87,32.636,0,64.388
		C304.17,454.632,295.607,451.754,269.134,416.717"/>
	<g>
		<path style="fill:#D2D5D7;" d="M309.965,489.932H18.655c-4.873,0-8.828-3.946-8.828-8.828c0-4.882,3.955-8.828,8.828-8.828h291.31
			c4.873,0,8.828,3.946,8.828,8.828C318.793,485.986,314.838,489.932,309.965,489.932"/>
		<path style="fill:#D2D5D7;" d="M513,286.898c0-9.754-7.901-17.655-17.655-17.655H336.448h-26.483H1l29.272,87.826
			c3.61,10.814,13.727,18.105,25.123,18.105h245.742l23.543-70.621h170.664C505.099,304.553,513,296.652,513,286.898"/>
	</g>
	<path style="fill:#F9DA49;" d="M98.103,154.484c0,14.627-11.855,26.483-26.483,26.483s-26.483-11.855-26.483-26.483
		s11.855-26.483,26.483-26.483S98.103,139.857,98.103,154.484"/>
	<path style="fill:#EF771D;" d="M283.483,198.622c0,14.627-11.855,26.483-26.483,26.483c-14.627,0-26.483-11.855-26.483-26.483
		s11.855-26.483,26.483-26.483C271.627,172.139,283.483,183.995,283.483,198.622"/>
	<path style="fill:#F9DA49;" d="M184.074,44.631c-1.774,0-3.558-0.538-5.111-1.642c-3.001-2.136-6.541-3.266-10.24-3.266
		c-4.873,0-8.942-3.946-8.942-8.828c0-4.873,3.84-8.828,8.713-8.828h0.23c7.389,0,14.468,2.26,20.48,6.55
		c3.972,2.825,4.899,8.342,2.066,12.306C189.547,43.342,186.828,44.631,184.074,44.631 M142.24,66.285
		c-4.873,0-8.828-3.866-8.828-8.748v-0.159c0-7.415,2.286-14.53,6.603-20.559c2.834-3.964,8.333-4.882,12.314-2.039
		c3.964,2.842,4.882,8.351,2.039,12.314c-2.154,3.019-3.302,6.568-3.302,10.284C151.067,62.26,147.112,66.285,142.24,66.285
		 M190.156,81.751c-1.792,0-3.61-0.538-5.173-1.677c-3.946-2.878-4.82-8.395-1.96-12.341c2.198-3.019,3.354-6.603,3.354-10.355
		c0-4.873,3.946-8.978,8.828-8.978c4.873,0,8.828,3.787,8.828,8.669h-8.828l8.828,0.071c0,7.751-2.322,14.91-6.718,20.974
		C195.585,80.489,192.892,81.751,190.156,81.751 M168.802,92.688h-0.079c-7.459,0-14.601-2.295-20.639-6.656
		c-3.955-2.851-4.846-8.369-1.995-12.323c2.851-3.937,8.369-4.829,12.323-2.004c3.019,2.18,6.577,3.328,10.311,3.328
		c4.873,0,8.872,3.955,8.872,8.828C177.594,88.742,173.675,92.688,168.802,92.688"/>
	<path style="fill:#FFFFFF;" d="M230.517,322.208c0,14.627-27.666,26.483-61.793,26.483s-61.793-11.855-61.793-26.483
		s27.666-26.483,61.793-26.483S230.517,307.581,230.517,322.208"/>
	<path style="fill:#D2D5D7;" d="M177.552,331.036h-17.655c-4.873,0-8.828-3.946-8.828-8.828c0-4.882,3.955-8.828,8.828-8.828h17.655
		c4.873,0,8.828,3.946,8.828,8.828C186.379,327.09,182.425,331.036,177.552,331.036"/>
</g>
<g>
</g>
<g>
</g>
<g>
</g>
<g>
</g>
<g>
</g>
<g>
</g>
<g>
</g>
<g>
</g>
<g>
</g>
<g>
</g>
<g>
</g>
<g>
</g>
<g>
</g>
<g>
</g>
<g>
</g>
</svg>
