<?xml version="1.0" encoding="iso-8859-1"?>
<!-- Generator: Adobe Illustrator 19.0.0, SVG Export Plug-In . SVG Version: 6.00 Build 0)  -->
<svg version="1.1" id="Layer_1" xmlns="http://www.w3.org/2000/svg" xmlns:xlink="http://www.w3.org/1999/xlink" x="0px" y="0px"
	 viewBox="0 0 512 512" style="enable-background:new 0 0 512 512;" xml:space="preserve">
<g transform="translate(-1)">
	<path style="fill:#CC6329;" d="M365.472,355.796c-2.222,0-4.443-0.85-6.135-2.543c-3.393-3.393-3.393-8.878,0-12.271
		l121.492-121.492c3.393-3.393,8.878-3.393,12.271,0c3.393,3.393,3.393,8.878,0,12.271L371.608,353.254
		C369.915,354.946,367.694,355.796,365.472,355.796"/>
	<g>
		<path style="fill:#DC9628;" d="M235.303,269.017c0,4.79-3.888,8.678-8.678,8.678s-8.678-3.888-8.678-8.678
			c0-4.79,3.888-8.678,8.678-8.678S235.303,264.226,235.303,269.017"/>
		<path style="fill:#DC9628;" d="M261.337,234.305c0,4.79-3.888,8.678-8.678,8.678s-8.678-3.888-8.678-8.678
			s3.888-8.678,8.678-8.678S261.337,229.515,261.337,234.305"/>
		<path style="fill:#DC9628;" d="M235.303,216.949c0,4.79-3.888,8.678-8.678,8.678s-8.678-3.888-8.678-8.678
			s3.888-8.678,8.678-8.678S235.303,212.159,235.303,216.949"/>
		<path style="fill:#DC9628;" d="M261.337,295.051c0,4.79-3.888,8.678-8.678,8.678s-8.678-3.888-8.678-8.678
			s3.888-8.678,8.678-8.678S261.337,290.26,261.337,295.051"/>
		<path style="fill:#DC9628;" d="M243.981,338.44c0,4.79-3.888,8.678-8.678,8.678s-8.678-3.888-8.678-8.678s3.888-8.678,8.678-8.678
			S243.981,333.65,243.981,338.44"/>
	</g>
	<path style="fill:#E6E6E6;" d="M339.438,503.322H200.591c-57.509,0-104.136-46.627-104.136-104.136v-52.068h347.119v52.068
		C443.574,456.695,396.947,503.322,339.438,503.322"/>
	<path style="fill:#CC6329;" d="M434.896,512H105.133c-0.573,0-1.137-0.061-1.701-0.174l-43.39-8.678
		c-4.703-0.937-7.749-5.502-6.804-10.205c0.929-4.703,5.502-7.784,10.205-6.804l42.548,8.504h328.044l42.548-8.504
		c4.712-0.981,9.277,2.1,10.205,6.804c0.946,4.703-2.1,9.268-6.804,10.205l-43.39,8.678C436.033,511.939,435.469,512,434.896,512"/>
	<path style="fill:#F4C44E;" d="M23.438,110.671L129.023,5.086c7.663-7.663,20.385-6.508,26.546,2.395l90.372,130.534
		c4.773,6.89,3.931,16.219-2.005,22.146l-65.415,65.423c-5.936,5.936-15.256,6.777-22.155,1.996L25.833,137.217
		C16.93,131.047,15.784,118.325,23.438,110.671"/>
	<path style="fill:#FFFFFF;" d="M137.594,156.057c10.171-10.171,10.171-26.65,0-36.821c10.171,10.171,26.65,10.171,36.821,0
		c10.162-10.162,10.162-26.65,0-36.812c-10.171-10.171-26.65-10.171-36.821,0c-10.171-10.171-26.65-10.171-36.821,0
		c-10.162,10.162-10.162,26.65,0,36.812c-10.162,10.171-10.162,26.65,0,36.821C110.944,166.228,127.424,166.228,137.594,156.057"/>
</g>
<g>
</g>
<g>
</g>
<g>
</g>
<g>
</g>
<g>
</g>
<g>
</g>
<g>
</g>
<g>
</g>
<g>
</g>
<g>
</g>
<g>
</g>
<g>
</g>
<g>
</g>
<g>
</g>
<g>
</g>
</svg>
