<?xml version="1.0" encoding="iso-8859-1"?>
<!-- Generator: Adobe Illustrator 19.0.0, SVG Export Plug-In . SVG Version: 6.00 Build 0)  -->
<svg version="1.1" id="Capa_1" xmlns="http://www.w3.org/2000/svg" xmlns:xlink="http://www.w3.org/1999/xlink" x="0px" y="0px"
	 viewBox="0 0 60 60" style="enable-background:new 0 0 60 60;" xml:space="preserve">
<g>
	<path d="M0,0.5v59h60v-59H0z M58,57.5H2v-55h56V57.5z"/>
	<path d="M15,19.5c2.757,0,5-2.243,5-5s-2.243-5-5-5s-5,2.243-5,5S12.243,19.5,15,19.5z M15,11.5c1.654,0,3,1.346,3,3s-1.346,3-3,3
		s-3-1.346-3-3S13.346,11.5,15,11.5z"/>
	<path d="M15,35.5c2.757,0,5-2.243,5-5s-2.243-5-5-5s-5,2.243-5,5S12.243,35.5,15,35.5z M15,27.5c1.654,0,3,1.346,3,3s-1.346,3-3,3
		s-3-1.346-3-3S13.346,27.5,15,27.5z"/>
	<path d="M15,51.5c2.757,0,5-2.243,5-5s-2.243-5-5-5s-5,2.243-5,5S12.243,51.5,15,51.5z M15,43.5c1.654,0,3,1.346,3,3s-1.346,3-3,3
		s-3-1.346-3-3S13.346,43.5,15,43.5z"/>
	<path d="M25,15.5h23c0.552,0,1-0.447,1-1s-0.448-1-1-1H25c-0.552,0-1,0.447-1,1S24.448,15.5,25,15.5z"/>
	<path d="M25,31.5h23c0.552,0,1-0.447,1-1s-0.448-1-1-1H25c-0.552,0-1,0.447-1,1S24.448,31.5,25,31.5z"/>
	<path d="M25,47.5h23c0.552,0,1-0.447,1-1s-0.448-1-1-1H25c-0.552,0-1,0.447-1,1S24.448,47.5,25,47.5z"/>
</g>
<g>
</g>
<g>
</g>
<g>
</g>
<g>
</g>
<g>
</g>
<g>
</g>
<g>
</g>
<g>
</g>
<g>
</g>
<g>
</g>
<g>
</g>
<g>
</g>
<g>
</g>
<g>
</g>
<g>
</g>
</svg>
