<svg width="16" height="16" viewBox="0 0 16 16" fill="none" xmlns="http://www.w3.org/2000/svg">
<g clip-path="url(#clip0_1_216)">
<path d="M10.6486 6.70384C10.3846 7.08784 10.1846 7.43184 9.93658 7.74384C9.63258 8.13584 9.36858 8.19184 8.88058 8.02384C8.17658 7.78384 7.69657 7.11984 7.70458 6.24784C7.70458 5.65584 7.80057 5.05584 7.88857 4.46384C8.00857 3.66384 7.80858 2.93584 7.38457 2.25584C7.52057 3.03984 7.50457 3.79984 6.88057 4.38384C6.25657 4.97584 5.52857 5.06384 4.84857 4.79184C4.99257 5.32784 5.22457 5.89584 5.28057 6.47984C5.36057 7.31184 4.99257 8.01584 4.36857 8.55984C4.23257 8.67184 3.99257 8.78384 3.84857 8.73584C3.71257 8.68784 3.58457 8.45584 3.54457 8.27984C3.41657 7.65584 3.16857 7.08784 2.75257 6.59984C2.69657 6.53584 2.62457 6.48784 2.48857 6.36784C2.48857 7.43984 2.48057 8.43984 2.48857 9.43184C2.49657 10.0318 2.55257 10.6318 2.90457 11.1598C3.14457 11.5278 3.44057 11.8158 3.88857 11.9278C4.17657 11.9998 4.34457 12.1838 4.25657 12.4798C4.16857 12.7918 3.90457 12.8318 3.64057 12.7518C2.56857 12.4078 1.96057 11.6078 1.79257 10.5438C1.66457 9.69584 1.68857 8.82384 1.72057 7.95984C1.76057 7.12784 1.73657 6.31984 1.37657 5.54384C1.31257 5.41584 1.35257 5.12784 1.44857 5.05584C1.57657 4.95984 1.84057 4.93584 1.98457 5.00784C2.91257 5.41584 3.59257 6.08784 4.02457 6.99984C4.08057 7.11984 4.13657 7.23984 4.19257 7.36784C4.58457 6.83184 4.52857 6.04784 4.04857 5.36784C3.57657 4.71184 3.46457 3.99984 3.77657 3.25584C3.84057 3.09584 4.07257 2.91984 4.23257 2.91184C4.36057 2.90384 4.50457 3.14384 4.63257 3.27184C4.65657 3.29584 4.64857 3.35184 4.65657 3.38384C4.76857 3.74384 5.01657 3.98384 5.38457 4.05584C5.76857 4.13584 6.10457 3.99984 6.35257 3.71184C6.63257 3.39184 6.61657 2.99184 6.52857 2.60784C6.32857 1.77584 5.80857 1.19984 5.00857 0.88784C4.73657 0.78384 4.49657 0.65584 4.58457 0.31984C4.68057 -0.0401598 4.97657 -0.0241598 5.26457 0.0158402C7.64057 0.39184 9.05658 2.35984 8.69658 4.75184C8.61658 5.28784 8.60057 5.83184 8.56858 6.36784C8.56058 6.45584 8.58458 6.56784 8.63258 6.63184C8.79258 6.83184 8.97658 7.00784 9.15258 7.19184C9.29658 7.04784 9.48058 6.93584 9.58458 6.76784C10.0086 6.09584 10.0086 5.38384 9.72058 4.66384C9.68858 4.57584 9.60058 4.48784 9.61658 4.40784C9.64858 4.21584 9.66458 3.96784 9.79258 3.87184C9.88858 3.79984 10.2166 3.86384 10.3046 3.96784C11.1366 4.96784 11.5366 6.13584 11.5286 7.43184C11.5286 7.70384 11.3526 7.89584 11.1046 7.84784C10.9526 7.81584 10.7686 7.60784 10.7126 7.43984C10.6406 7.24784 10.6726 6.99184 10.6486 6.70384Z" fill="black"/>
<path d="M13.9527 8.91165C14.3367 9.87165 14.2247 10.4396 13.5127 11.1276C13.4487 11.1916 13.3927 11.2716 13.3687 11.3516C13.2247 11.9196 12.8807 12.3596 12.4327 12.7036C11.5207 13.3996 10.6567 14.1596 9.68067 14.7516C6.60867 16.6076 3.51267 16.3836 0.552673 14.1676C0.456673 14.0956 0.360673 14.0236 0.264673 13.9516C0.0646728 13.8076 -0.103327 13.5916 0.0566728 13.3836C0.168673 13.2396 0.424673 13.1596 0.624673 13.1516C0.968673 13.1436 1.31267 13.2396 1.65667 13.2636C3.89667 13.4076 5.80067 12.5756 7.48867 11.1836C8.24067 10.5676 8.92867 9.87965 9.64067 9.21565C10.0567 8.82365 10.5207 8.58365 11.0887 8.54365C11.2247 8.53565 11.3687 8.47165 11.4807 8.39165C11.9767 8.04765 12.5047 7.99965 13.0807 8.15965C13.2247 8.19965 13.4407 8.15965 13.5607 8.07165C14.0887 7.67965 14.6407 7.43965 15.3047 7.68765C15.5607 7.78365 15.7687 7.95165 15.6647 8.25565C15.5687 8.54365 15.3447 8.59965 15.0487 8.49565C14.6407 8.36765 14.3927 8.47165 13.9527 8.91165ZM2.09667 14.1436C3.19267 14.9196 4.98467 15.3116 6.32867 15.0876C8.72867 14.6956 10.5927 13.3516 12.2567 11.6876C12.8007 11.1436 12.6967 10.2476 12.1207 9.71165C11.5927 9.22365 10.8167 9.26365 10.2487 9.80765C9.71267 10.3196 9.17667 10.8476 8.61667 11.3436C7.06467 12.6956 5.36867 13.7596 3.27267 14.0316C2.90467 14.0796 2.53667 14.1036 2.09667 14.1436ZM12.5607 8.90365C12.8247 9.23165 13.0487 9.51965 13.2727 9.79965C13.2967 9.31965 13.1207 9.07165 12.5607 8.90365Z" fill="black"/>
<path d="M12.5601 8.90417C13.1121 9.06417 13.2961 9.31217 13.2721 9.80017C13.0481 9.52017 12.8241 9.24017 12.5601 8.90417Z" fill="white"/>
</g>
<defs>
<clipPath id="clip0_1_216">
<rect width="15.696" height="16" fill="white"/>
</clipPath>
</defs>
</svg>
