<svg width="16" height="16" viewBox="0 0 16 16" fill="none" xmlns="http://www.w3.org/2000/svg">
<g clip-path="url(#clip0_1_2687)">
<path d="M2.10189 0.366127L2.1019 0.36612L2.10189 0.366127ZM2.10189 0.366127L2.10185 0.366174L2.10189 0.366127ZM14.1867 15.2802C14.4802 15.5738 14.955 15.5739 15.2483 15.2804L15.2484 15.2803L15.1594 15.1912M14.1867 15.2802L12.0731 12.9884L12.9567 12.1048L13.0458 12.0157L13.107 12.0768L13.1349 12.1047L15.2486 14.2184L15.2486 14.2184L15.1595 14.3075M14.1867 15.2802L14.2759 15.1911M14.1867 15.2802L14.1867 15.2802L14.2759 15.1911M15.1594 15.1912L15.2485 15.2802L15.2486 15.2801C15.5422 14.9868 15.5423 14.5119 15.2487 14.2185L15.2486 14.2185L15.1595 14.3075M15.1594 15.1912C15.4045 14.9462 15.4032 14.5511 15.1595 14.3075M15.1594 15.1912C14.9153 15.4355 14.5201 15.4356 14.2759 15.1911M15.1595 14.3075L13.3986 12.5468L13.0458 12.1939L12.5151 12.7246L12.1622 13.0774L12.5151 13.4303L14.2759 15.1911M15.5122 15.5442C15.5122 15.5442 15.5122 15.5441 15.5122 15.5441L15.5122 15.5442ZM15.5122 15.5442C15.0732 15.9831 14.3622 15.9834 13.923 15.544L15.5122 15.5442ZM3.22603 14.9949L3.22657 14.9943C3.22639 14.9945 3.22621 14.9947 3.22603 14.9949ZM15.5123 13.9546C15.5123 13.9546 15.5123 13.9546 15.5123 13.9546L15.5123 13.9546Z" fill="#1E2022" stroke="#1E2022" stroke-width="0.998049"/>
<path d="M7.83606 8.43775C7.83606 8.61036 7.69617 8.75025 7.52356 8.75025C7.35095 8.75025 7.21106 8.61036 7.21106 8.43775C7.21106 8.26514 7.35095 8.12524 7.52356 8.12524C7.69617 8.12524 7.83606 8.26514 7.83606 8.43775Z" fill="#1E2022"/>
<path d="M4.43005 4.90213C4.30798 4.78018 4.11023 4.78018 3.98816 4.90213C3.86609 5.0242 3.86609 5.22208 3.98816 5.34415L6.30823 7.66422C6.43042 7.78629 6.62818 7.78629 6.75025 7.66422C6.87232 7.54227 6.87232 7.3444 6.75025 7.22232L4.43005 4.90213Z" fill="#1E2022"/>
</g>
<defs>
<clipPath id="clip0_1_2687">
<rect width="16" height="16" fill="white"/>
</clipPath>
</defs>
</svg>
