<svg width="50" height="50" viewBox="0 0 50 50" fill="none" xmlns="http://www.w3.org/2000/svg">
<rect opacity="0.3" width="50" height="50" rx="10" fill="#FF6517"/>
<path d="M25 17C20.5818 17 17 20.5818 17 25C17 29.4182 20.5818 33 25 33C29.4182 33 33 29.4182 33 25C33 20.5818 29.4182 17 25 17ZM25 31.6667C21.3182 31.6667 18.3333 28.6818 18.3333 25C18.3333 21.3182 21.3182 18.3333 25 18.3333C28.6818 18.3333 31.6667 21.3182 31.6667 25C31.6667 28.6818 28.6818 31.6667 25 31.6667Z" fill="#FC6011"/>
<path d="M28.9998 24.3334H25.6666V21C25.6666 20.6318 25.3681 20.3334 24.9999 20.3334C24.6318 20.3334 24.3333 20.6318 24.3333 21V24.3334H21.0011C20.6329 24.3334 20.3345 24.6318 20.3345 25C20.3345 25.3682 20.6329 25.6667 21.0011 25.6667H24.3333V29C24.3333 29.3682 24.6317 29.6667 24.9999 29.6667C25.3681 29.6667 25.6666 29.3682 25.6666 29V25.6667H28.9998C29.3679 25.6667 29.6664 25.3682 29.6664 25C29.6664 24.6318 29.368 24.3334 28.9998 24.3334Z" fill="#FC6011"/>
</svg>
