<svg width="12" height="16" viewBox="0 0 12 16" fill="none" xmlns="http://www.w3.org/2000/svg">
<path d="M1.26211 15.386L1.24594 15.3996L1.23482 15.4107C1.10508 15.5044 0.929963 15.5271 0.749414 15.4488C0.606354 15.3791 0.5 15.2143 0.5 15.0338V1.54589C0.5 0.971795 0.971795 0.5 1.54589 0.5H10.2802C10.8543 0.5 11.3261 0.971795 11.3261 1.54589V15.0145C11.3261 15.1969 11.2175 15.3632 11.0721 15.4316L11.0542 15.4401L11.037 15.4499C10.9766 15.4844 10.9074 15.5 10.8599 15.5C10.7741 15.5 10.6768 15.4703 10.5889 15.4083L10.5802 15.3996L10.564 15.386L6.23548 11.7338L5.91304 11.4617L5.59061 11.7338L1.26211 15.386Z" stroke="#1E2022"/>
</svg>
