<?xml version="1.0" encoding="UTF-8" standalone="no" ?>
<!DOCTYPE svg PUBLIC "-//W3C//DTD SVG 1.1//EN" "http://www.w3.org/Graphics/SVG/1.1/DTD/svg11.dtd">
<svg xmlns="http://www.w3.org/2000/svg" xmlns:xlink="http://www.w3.org/1999/xlink" version="1.1" width="500" height="500" viewBox="0 0 500 500" xml:space="preserve">
<desc>Created with Fabric.js 4.6.0</desc>
<defs>
</defs>
<g transform="matrix(8.29 0 0 8.29 250 249.92)" id="0QC1qy0Ig9BC-Bveci4vB"  >
<path style="stroke: none; stroke-width: 1; stroke-dasharray: none; stroke-linecap: butt; stroke-dashoffset: 0; stroke-linejoin: miter; stroke-miterlimit: 4; fill: rgb(0,0,0); fill-rule: nonzero; opacity: 1;" vector-effect="non-scaling-stroke"  transform=" translate(-30.06, -30.06)" d="M 56.141 26.143 C 56.14 26.14 56.141 26.136 56.14 26.133 C 56.139 26.128999999999998 56.136 26.125999999999998 56.135 26.122 C 55.522999999999996 23.843 54.617 21.685 53.464999999999996 19.685 C 53.455 19.663999999999998 53.455 19.642 53.443 19.621 C 53.431 19.601 53.412 19.59 53.399 19.570999999999998 C 52.388 17.836 51.192 16.223999999999997 49.833 14.761999999999997 L 51.98 12.614999999999997 L 53.394999999999996 14.028999999999996 L 57.63699999999999 9.786999999999995 L 53.394999999999996 5.543999999999995 L 49.151999999999994 9.786999999999995 L 50.565999999999995 11.200999999999995 L 48.419 13.347999999999995 C 46.956999999999994 11.989999999999995 45.345 10.792999999999996 43.61 9.781999999999996 C 43.591 9.768999999999997 43.58 9.749999999999996 43.56 9.737999999999996 C 43.54 9.725999999999996 43.516000000000005 9.726999999999997 43.496 9.715999999999996 C 41.496 8.562999999999995 39.338 7.657999999999996 37.06 7.045999999999996 C 37.056000000000004 7.0449999999999955 37.053000000000004 7.041999999999996 37.049 7.040999999999996 C 37.045 7.039999999999996 37.042 7.040999999999996 37.039 7.040999999999996 C 35.748000000000005 6.694999999999996 34.42 6.442999999999996 33.061 6.291999999999996 L 33.061 5 L 34.561 5 C 35.94 5 37.061 3.879 37.061 2.5 C 37.061 1.121 35.939 0 34.561 0 L 25.561 0 C 24.182 0 23.061 1.121 23.061 2.5 C 23.061 3.879 24.182 5 25.561 5 L 27.061 5 L 27.061 6.292 C 25.701999999999998 6.443 24.374 6.695 23.083 7.0409999999999995 C 23.078999999999997 7.042 23.075999999999997 7.0409999999999995 23.072999999999997 7.042 C 23.068999999999996 7.043 23.065999999999995 7.045999999999999 23.061999999999998 7.047 C 20.784 7.659 18.625999999999998 8.565 16.625999999999998 9.716999999999999 C 16.604999999999997 9.726999999999999 16.581999999999997 9.726999999999999 16.560999999999996 9.738999999999999 C 16.540999999999997 9.751 16.529999999999998 9.77 16.510999999999996 9.783 C 14.776999999999996 10.793999999999999 13.163999999999996 11.989999999999998 11.701999999999995 13.349 L 9.554999999999994 11.202 L 10.968999999999994 9.788 L 6.726 5.544 L 2.483 9.787 L 6.725 14.029 L 8.14 12.615 L 10.287 14.762 C 8.929 16.224 7.732000000000001 17.836 6.722000000000001 19.571 C 6.709000000000001 19.59 6.689000000000001 19.601000000000003 6.678000000000002 19.621000000000002 C 6.666000000000002 19.642000000000003 6.667000000000002 19.664 6.6560000000000015 19.685000000000002 C 5.503000000000002 21.685000000000002 4.598000000000002 23.843000000000004 3.9860000000000015 26.122000000000003 C 3.9850000000000017 26.126000000000005 3.9820000000000015 26.129000000000005 3.9810000000000016 26.133000000000003 C 3.9800000000000018 26.136000000000003 3.9810000000000016 26.140000000000004 3.9800000000000018 26.143000000000004 C 3.3840000000000017 28.370000000000005 3.0610000000000017 30.708000000000006 3.0610000000000017 33.121 C 3.0610000000000017 35.534 3.3840000000000017 37.871 3.9800000000000018 40.099000000000004 C 3.9810000000000016 40.103 3.9800000000000018 40.106 3.9810000000000016 40.109 C 3.9820000000000015 40.114000000000004 3.9860000000000015 40.118 3.9870000000000014 40.123000000000005 C 4.599000000000001 42.401 5.504000000000001 44.55800000000001 6.6560000000000015 46.557 C 6.666000000000001 46.578 6.666000000000001 46.6 6.678000000000002 46.621 C 6.695000000000002 46.650000000000006 6.719000000000002 46.672000000000004 6.738000000000001 46.699000000000005 C 7.903000000000001 48.69200000000001 9.311000000000002 50.526 10.929000000000002 52.153000000000006 C 10.945000000000002 52.172000000000004 10.951000000000002 52.19500000000001 10.969000000000001 52.21300000000001 C 10.987 52.23100000000001 11.010000000000002 52.23700000000001 11.029000000000002 52.25300000000001 C 12.663000000000002 53.879000000000005 14.507000000000001 55.29200000000001 16.511000000000003 56.46000000000001 C 16.53 56.473000000000006 16.541000000000004 56.492000000000004 16.561000000000003 56.504000000000005 C 16.591000000000005 56.52100000000001 16.624000000000002 56.529 16.655000000000005 56.543000000000006 C 18.646000000000004 57.687000000000005 20.795000000000005 58.587 23.062000000000005 59.196000000000005 C 23.066000000000006 59.197 23.069000000000006 59.2 23.073000000000004 59.20100000000001 C 23.078000000000003 59.202000000000005 23.083000000000006 59.202000000000005 23.088000000000005 59.20300000000001 C 25.314000000000004 59.79900000000001 27.650000000000006 60.12100000000001 30.061000000000003 60.12100000000001 C 32.472 60.12100000000001 34.80800000000001 59.79900000000001 37.034000000000006 59.20300000000001 C 37.03900000000001 59.20200000000001 37.044000000000004 59.20300000000001 37.04900000000001 59.20100000000001 C 37.053000000000004 59.20000000000001 37.056000000000004 59.19700000000001 37.06000000000001 59.196000000000005 C 39.32700000000001 58.587 41.47500000000001 57.687000000000005 43.46700000000001 56.543000000000006 C 43.49800000000001 56.529 43.53100000000001 56.522000000000006 43.561000000000014 56.504000000000005 C 43.58100000000002 56.492000000000004 43.59200000000001 56.473000000000006 43.61100000000001 56.46000000000001 C 45.61500000000001 55.29200000000001 47.45800000000001 53.879000000000005 49.09300000000001 52.25300000000001 C 49.11200000000001 52.23700000000001 49.13500000000001 52.23100000000001 49.15300000000001 52.21300000000001 C 49.171000000000014 52.19500000000001 49.177000000000014 52.17100000000001 49.19300000000001 52.153000000000006 C 50.811000000000014 50.526 52.21900000000001 48.69200000000001 53.384000000000015 46.699000000000005 C 53.40300000000001 46.672000000000004 53.427000000000014 46.651 53.44400000000002 46.621 C 53.45600000000002 46.6 53.45500000000002 46.578 53.466000000000015 46.557 C 54.618000000000016 44.558 55.52300000000002 42.401 56.13500000000001 40.123000000000005 C 56.13600000000001 40.118 56.140000000000015 40.114000000000004 56.14100000000001 40.109 C 56.14200000000001 40.106 56.14100000000001 40.102000000000004 56.14200000000001 40.099000000000004 C 56.73800000000001 37.87200000000001 57.06100000000001 35.534000000000006 57.06100000000001 33.121 C 57.06100000000001 30.708 56.738 28.371 56.141 26.143 z M 52.018 40.04 L 53.933 40.553 C 53.478 42.010999999999996 52.888 43.41 52.186 44.741 L 50.479 43.755 C 50.001 43.478 49.388999999999996 43.641000000000005 49.113 44.121 C 48.836999999999996 44.6 49.001 45.211000000000006 49.479 45.487 L 51.182 46.47 C 50.369 47.751999999999995 49.446000000000005 48.955999999999996 48.42 50.066 L 47.031 48.677 C 46.64 48.286 46.007999999999996 48.286 45.617 48.677 C 45.226 49.068 45.226 49.7 45.617 50.091 L 47.006 51.480000000000004 C 45.896 52.50600000000001 44.692 53.429 43.41 54.242000000000004 L 42.427 52.539 C 42.15 52.059000000000005 41.537 51.895 41.061 52.173 C 40.582 52.449000000000005 40.418 53.061 40.695 53.539 L 41.681 55.246 C 40.349999999999994 55.948 38.952 56.538000000000004 37.492999999999995 56.993 L 36.98 55.079 C 36.836999999999996 54.545 36.288999999999994 54.227000000000004 35.754999999999995 54.372 C 35.221999999999994 54.515 34.904999999999994 55.063 35.047999999999995 55.597 L 35.559 57.505 C 34.102999999999994 57.833000000000006 32.599999999999994 58.035000000000004 31.060999999999996 58.096000000000004 L 31.060999999999996 56.121 C 31.060999999999996 55.568000000000005 30.613999999999997 55.121 30.060999999999996 55.121 C 29.507999999999996 55.121 29.060999999999996 55.568000000000005 29.060999999999996 56.121 L 29.060999999999996 58.096000000000004 C 27.521999999999995 58.035000000000004 26.019 57.833000000000006 24.562999999999995 57.505 L 25.073999999999995 55.597 C 25.216999999999995 55.064 24.899999999999995 54.515 24.366999999999994 54.372 C 23.833999999999993 54.228 23.284999999999993 54.545 23.141999999999992 55.079 L 22.62899999999999 56.993 C 21.170999999999992 56.538000000000004 19.77199999999999 55.948 18.440999999999992 55.246 L 19.426999999999992 53.539 C 19.702999999999992 53.06 19.53899999999999 52.449 19.060999999999993 52.173 C 18.58299999999999 51.896 17.970999999999993 52.059000000000005 17.694999999999993 52.539 L 16.711999999999993 54.242000000000004 C 15.429999999999993 53.429 14.225999999999992 52.50600000000001 13.115999999999993 51.480000000000004 L 14.504999999999992 50.091 C 14.895999999999992 49.7 14.895999999999992 49.068 14.504999999999992 48.677 C 14.113999999999992 48.286 13.481999999999992 48.286 13.090999999999992 48.677 L 11.701999999999993 50.066 C 10.675999999999993 48.956 9.752999999999993 47.752 8.939999999999992 46.47 L 10.642999999999992 45.487 C 11.121999999999991 45.211 11.285999999999992 44.599000000000004 11.008999999999991 44.121 C 10.731999999999992 43.641000000000005 10.118999999999991 43.477000000000004 9.642999999999992 43.755 L 7.935 44.74 C 7.233 43.409 6.643 42.011 6.188 40.552 L 8.103 40.039 C 8.636 39.896 8.953 39.348 8.81 38.814 C 8.668000000000001 38.28 8.120000000000001 37.962 7.585000000000001 38.107 L 5.677 38.62 C 5.348999999999999 37.163999999999994 5.146999999999999 35.660999999999994 5.085999999999999 34.120999999999995 L 7.061 34.120999999999995 C 7.614 34.120999999999995 8.061 33.67399999999999 8.061 33.120999999999995 C 8.061 32.568 7.614 32.120999999999995 7.061 32.120999999999995 L 5.086 32.120999999999995 C 5.147 30.581999999999994 5.349 29.078999999999994 5.6770000000000005 27.622999999999994 L 7.586 28.134999999999994 C 7.673 28.157999999999994 7.760000000000001 28.168999999999993 7.846 28.168999999999993 C 8.287 28.168999999999993 8.691 27.874999999999993 8.811 27.427999999999994 C 8.955 26.894999999999992 8.637 26.345999999999993 8.104 26.202999999999992 L 6.188999999999999 25.688999999999993 C 6.643999999999999 24.230999999999995 7.233999999999999 22.831999999999994 7.935999999999999 21.500999999999994 L 9.642999999999999 22.486999999999995 C 9.799999999999999 22.577999999999996 9.972 22.620999999999995 10.142 22.620999999999995 C 10.488 22.620999999999995 10.824 22.441999999999997 11.009 22.120999999999995 C 11.285 21.641999999999996 11.121 21.030999999999995 10.643 20.754999999999995 L 8.940000000000001 19.771999999999995 C 9.753000000000002 18.489999999999995 10.676000000000002 17.285999999999994 11.702000000000002 16.175999999999995 L 13.091000000000001 17.564999999999994 C 13.286000000000001 17.759999999999994 13.542000000000002 17.857999999999993 13.798000000000002 17.857999999999993 C 14.054000000000002 17.857999999999993 14.310000000000002 17.759999999999994 14.505000000000003 17.564999999999994 C 14.896000000000003 17.173999999999992 14.896000000000003 16.541999999999994 14.505000000000003 16.150999999999993 L 13.116000000000003 14.761999999999993 C 14.226000000000003 13.736999999999993 15.430000000000003 12.812999999999994 16.712000000000003 11.999999999999993 L 17.695000000000004 13.703999999999994 C 17.881000000000004 14.023999999999994 18.216000000000005 14.203999999999994 18.562000000000005 14.203999999999994 C 18.732000000000006 14.203999999999994 18.904000000000003 14.160999999999994 19.061000000000003 14.069999999999993 C 19.540000000000003 13.793999999999993 19.704000000000004 13.181999999999993 19.427000000000003 12.703999999999994 L 18.441000000000003 10.995999999999993 C 19.772000000000002 10.293999999999993 21.17 9.703999999999994 22.629 9.248999999999993 L 23.142000000000003 11.163999999999994 C 23.261000000000003 11.609999999999994 23.665000000000003 11.904999999999994 24.107000000000003 11.904999999999994 C 24.193 11.904999999999994 24.28 11.893999999999995 24.367000000000004 11.870999999999993 C 24.900000000000006 11.727999999999993 25.217000000000006 11.179999999999993 25.074000000000005 10.645999999999994 L 24.563000000000006 8.736999999999993 C 26.019000000000005 8.408999999999994 27.522000000000006 8.206999999999994 29.062000000000005 8.145999999999994 L 29.062000000000005 10.120999999999993 C 29.062000000000005 10.673999999999994 29.509000000000004 11.120999999999993 30.062000000000005 11.120999999999993 C 30.615000000000006 11.120999999999993 31.062000000000005 10.673999999999994 31.062000000000005 10.120999999999993 L 31.062000000000005 8.146 C 32.601000000000006 8.207 34.104000000000006 8.409 35.56100000000001 8.737 L 35.050000000000004 10.646 C 34.907000000000004 11.179 35.224000000000004 11.728000000000002 35.757000000000005 11.871 C 35.84400000000001 11.894 35.931000000000004 11.905000000000001 36.017 11.905000000000001 C 36.458000000000006 11.905000000000001 36.863 11.610000000000001 36.982000000000006 11.164000000000001 L 37.495000000000005 9.249000000000002 C 38.953 9.704000000000002 40.352000000000004 10.294000000000002 41.68300000000001 10.996000000000002 L 40.69700000000001 12.704000000000002 C 40.42100000000001 13.183000000000002 40.58500000000001 13.794000000000002 41.06300000000001 14.070000000000002 C 41.220000000000006 14.161000000000001 41.39200000000001 14.204000000000002 41.56200000000001 14.204000000000002 C 41.90800000000001 14.204000000000002 42.244000000000014 14.024000000000003 42.42900000000001 13.704000000000002 L 43.41 12 C 44.69199999999999 12.813 45.895999999999994 13.737 47.006 14.762 L 45.617 16.151 C 45.226 16.542 45.226 17.174 45.617 17.565 C 45.812 17.76 46.068 17.858 46.324 17.858 C 46.58 17.858 46.836 17.76 47.031 17.565 L 48.42 16.176000000000002 C 49.446000000000005 17.286 50.369 18.490000000000002 51.182 19.772000000000002 L 49.479 20.755000000000003 C 49 21.031000000000002 48.836 21.643000000000004 49.113 22.121000000000002 C 49.299 22.442000000000004 49.634 22.621000000000002 49.98 22.621000000000002 C 50.15 22.621000000000002 50.321999999999996 22.578000000000003 50.479 22.487000000000002 L 52.186 21.501 C 52.888 22.832 53.478 24.23 53.933 25.689 L 52.018 26.203 C 51.485 26.346 51.167 26.894 51.311 27.428 C 51.431 27.875 51.834 28.169 52.276 28.169 C 52.362 28.169 52.449000000000005 28.158 52.536 28.135 L 54.445 27.623 C 54.773 29.079 54.975 30.582 55.036 32.121 L 53.061 32.121 C 52.508 32.121 52.061 32.568000000000005 52.061 33.121 C 52.061 33.674 52.508 34.121 53.061 34.121 L 55.036 34.121 C 54.975 35.660000000000004 54.773 37.163000000000004 54.445 38.620000000000005 L 52.536 38.109 C 52.005 37.965 51.454 38.283 51.311 38.816 C 51.168 39.349000000000004 51.484 39.897 52.018 40.04 z" stroke-linecap="round" />
</g>
</svg>