<svg width="16" height="16" viewBox="0 0 16 16" fill="none" xmlns="http://www.w3.org/2000/svg">
<path d="M12.2432 12.3451C14.0097 11.0456 15.1467 8.95425 15.1467 6.59893C15.1467 6.25373 14.8827 5.98981 14.5376 5.98981H1.46141C1.11622 5.98981 0.852295 6.25377 0.852295 6.59893C0.852295 8.95425 1.98934 11.0456 3.75584 12.3451L1.84722 15.0253C1.64419 15.2893 1.70509 15.675 1.98934 15.8781C2.09086 15.9593 2.2127 15.9999 2.33454 15.9999C2.51728 15.9999 2.72034 15.9187 2.82185 15.736L4.79141 12.9948C5.76605 13.4822 6.84216 13.7664 7.99954 13.7664C9.15691 13.7664 10.233 13.4822 11.2077 12.9948L13.1772 15.7156C13.2991 15.8781 13.4818 15.9796 13.6645 15.9796C13.7864 15.9796 13.9082 15.939 14.0097 15.8578C14.2737 15.6547 14.3549 15.2892 14.1519 15.005L12.2432 12.3451ZM2.11118 7.20804H13.8878C13.5832 10.1928 11.0452 12.5279 7.9995 12.5279C4.95383 12.5279 2.41572 10.1928 2.11118 7.20804Z" fill="#1E2022"/>
<path d="M7.99999 5.15736C7.6548 5.15736 7.39087 4.89339 7.39087 4.54824V0.609119C7.39083 0.263966 7.6548 0 7.99999 0C8.34518 0 8.60911 0.263966 8.60911 0.609119V4.5482C8.60911 4.89339 8.34518 5.15736 7.99999 5.15736Z" fill="#1E2022"/>
<path d="M10.843 5.15771C10.4978 5.15771 10.2339 4.89374 10.2339 4.54859V1.82775C10.2339 1.48255 10.4979 1.21863 10.843 1.21863C11.1882 1.21863 11.4521 1.48259 11.4521 1.82775V4.54855C11.4521 4.89374 11.1882 5.15771 10.843 5.15771Z" fill="#1E2022"/>
<path d="M5.15697 5.15771C4.81178 5.15771 4.54785 4.89374 4.54785 4.54859V1.82775C4.54785 1.48255 4.81182 1.21863 5.15697 1.21863C5.50213 1.21863 5.7661 1.48259 5.7661 1.82775V4.54855C5.7661 4.89374 5.50217 5.15771 5.15697 5.15771Z" fill="#1E2022"/>
</svg>
