<svg width="64" height="64" viewBox="0 0 64 64" fill="none" xmlns="http://www.w3.org/2000/svg">
<g clip-path="url(#clip0_5_57)">
<path d="M51.6858 19.1132C49.5241 8.26754 38.9797 1.22799 28.134 3.38961C20.2014 4.97067 13.9988 11.1694 12.4128 19.101C4.72288 19.9873 -0.793235 26.9394 0.0925071 34.6298C0.907937 41.7075 6.90257 47.0473 14.0271 47.0424H24.0388C25.1448 47.0424 26.0412 46.146 26.0412 45.04C26.0412 43.934 25.1448 43.0376 24.0388 43.0376H14.0271C8.49729 43.0048 4.04173 38.4961 4.07395 32.9668C4.10667 27.4375 8.61546 22.9814 14.1452 23.0136C15.1657 23.0141 16.0232 22.2461 16.1355 21.2319C17.1521 12.4433 25.1008 6.14303 33.8894 7.15963C41.2781 8.01461 47.1067 13.8427 47.9612 21.2319C48.1291 22.2641 49.0237 23.0205 50.0696 23.0136C55.5993 23.0136 60.0818 27.4961 60.0818 33.0258C60.0818 38.5551 55.5993 43.0376 50.0696 43.0376H40.0578C38.9519 43.0376 38.0554 43.934 38.0554 45.04C38.0554 46.146 38.9519 47.0424 40.0578 47.0424H50.07C57.8108 46.9941 64.0471 40.6801 63.9992 32.9389C63.9553 25.8896 58.6828 19.9697 51.6858 19.1132Z" fill="#FC6011"/>
<path d="M39.1298 38.9319C39.8984 39.7278 41.166 39.7498 41.9614 38.9813C42.7568 38.2132 42.7787 36.9456 42.0107 36.1502C41.9946 36.1331 41.978 36.117 41.9614 36.1009L33.4692 27.6068C32.6884 26.8235 31.4203 26.8221 30.6371 27.6028C30.6362 27.6043 30.6347 27.6053 30.6337 27.6068L22.1415 36.1009C21.3461 36.869 21.3242 38.1365 22.0922 38.9319C22.8608 39.7274 24.1284 39.7493 24.9238 38.9813C24.9404 38.9652 24.957 38.9485 24.9731 38.9319L30.0493 33.8538V59.056C30.0493 60.1619 30.9457 61.0584 32.0517 61.0584C33.1572 61.0584 34.0536 60.1619 34.0536 59.056V33.8538L39.1298 38.9319Z" fill="#FC6011"/>
</g>
<defs>
<clipPath id="clip0_5_57">
<rect width="64" height="64" fill="white"/>
</clipPath>
</defs>
</svg>
